
<svg width="53" height="53" viewBox="0 0 53 53" fill="none" xmlns="http://www.w3.org/2000/svg">
<rect x="20.4175" y="0.205322" width="3.24982" height="3.24982" fill="#E6E5DD"/>
<rect x="13.9187" y="3.45386" width="3.24982" height="3.24982" fill="#E6E5DD"/>
<rect x="26.9175" y="3.45752" width="3.24982" height="3.24982" fill="#E6E5DD"/>
<rect x="30.1663" y="6.7063" width="3.24982" height="3.24982" fill="#E6E5DD"/>
<rect x="30.1672" y="9.95508" width="3.24982" height="3.24982" fill="#E6E5DD"/>
<rect x="30.1711" y="13.2068" width="3.24982" height="3.24982" fill="#052e16"/>
<rect x="30.168" y="16.4556" width="3.24982" height="3.24982" fill="#052e16"/>
<rect x="30.1665" y="19.7017" width="3.24982" height="3.24982" fill="#052e16"/>
<rect x="30.1692" y="22.9561" width="3.24982" height="3.24982" fill="#E6E5DD"/>
<rect x="30.1658" y="26.2048" width="3.24982" height="3.24982" fill="#E6E5DD"/>
<rect x="30.167" y="29.4539" width="3.24982" height="3.24982" fill="#E6E5DD"/>
<rect x="30.1682" y="32.7029" width="3.24982" height="3.24982" fill="#E6E5DD"/>
<rect x="30.1682" y="35.9548" width="3.24982" height="3.24982" fill="#E6E5DD"/>
<rect x="30.1675" y="39.2061" width="3.24982" height="3.24982" fill="#E6E5DD"/>
<rect x="30.166" y="42.4521" width="3.24982" height="3.24982" fill="#E6E5DD"/>
<rect x="30.1655" y="45.7036" width="3.24982" height="3.24982" fill="#E6E5DD"/>
<rect x="30.1692" y="48.9548" width="3.24982" height="3.24982" fill="#E6E5DD"/>
<rect x="17.1697" y="6.70483" width="3.24982" height="3.24982" fill="#E6E5DD"/>
<rect x="17.1689" y="9.9563" width="3.24982" height="3.24982" fill="#E6E5DD"/>
<rect x="17.1682" y="13.2073" width="3.24982" height="3.24982" fill="#E6E5DD"/>
<rect x="17.1694" y="16.4563" width="3.24982" height="3.24982" fill="#052e16"/>
<rect x="17.1689" y="19.7036" width="3.24982" height="3.24982" fill="#052e16"/>
<rect x="17.168" y="22.9546" width="3.24982" height="3.24982" fill="#052e16"/>
<rect x="17.1697" y="26.2083" width="3.24982" height="3.24982" fill="#E6E5DD"/>
<rect x="17.1687" y="29.4548" width="3.24982" height="3.24982" fill="#E6E5DD"/>
<rect x="17.165" y="32.7031" width="3.24982" height="3.24982" fill="#E6E5DD"/>
<rect x="17.1697" y="35.9556" width="3.24982" height="3.24982" fill="#E6E5DD"/>
<rect x="17.1685" y="39.2021" width="3.24982" height="3.24982" fill="#E6E5DD"/>
<rect x="17.1697" y="42.4512" width="3.24982" height="3.24982" fill="#E6E5DD"/>
<rect x="17.1667" y="45.7043" width="3.24982" height="3.24982" fill="#E6E5DD"/>
<rect x="10.6667" y="6.70557" width="3.24982" height="3.24982" fill="#E6E5DD"/>
<rect x="10.668" y="9.95483" width="3.24982" height="3.24982" fill="#E6E5DD"/>
<rect x="7.4187" y="9.95361" width="3.24982" height="3.24982" fill="#E6E5DD"/>
<rect x="10.6702" y="13.2048" width="3.24982" height="3.24982" fill="#E6E5DD"/>
<rect x="7.41797" y="13.2048" width="3.24982" height="3.24982" fill="#E6E5DD"/>
<rect x="4.16699" y="13.2056" width="3.24982" height="3.24982" fill="#E6E5DD"/>
<rect x="7.41797" y="16.4565" width="3.24982" height="3.24982" fill="#E6E5DD"/>
<rect x="46.4175" y="16.4536" width="3.24982" height="3.24982" fill="#E6E5DD"/>
<rect x="46.4155" y="19.7078" width="3.24982" height="3.24982" fill="#E6E5DD"/>
<rect x="49.6687" y="19.7048" width="3.24982" height="3.24982" fill="#E6E5DD"/>
<rect x="4.16821" y="19.7063" width="3.24982" height="3.24982" fill="#E6E5DD"/>
<rect x="4.16943" y="22.9553" width="3.24982" height="3.24982" fill="#E6E5DD"/>
<rect x="4.17065" y="26.2043" width="3.24982" height="3.24982" fill="#E6E5DD"/>
<rect x="4.17212" y="29.4536" width="3.24982" height="3.24982" fill="#E6E5DD"/>
<rect x="4.16748" y="32.7051" width="3.24982" height="3.24982" fill="#E6E5DD"/>
<rect x="4.16846" y="35.9536" width="3.24982" height="3.24982" fill="#E6E5DD"/>
<rect x="46.4167" y="22.9568" width="3.24982" height="3.24982" fill="#E6E5DD"/>
<rect x="46.4153" y="26.2031" width="3.24982" height="3.24982" fill="#E6E5DD"/>
<rect x="46.4167" y="29.4524" width="3.24982" height="3.24982" fill="#E6E5DD"/>
<rect x="46.4182" y="32.7058" width="3.24982" height="3.24982" fill="#E6E5DD"/>
<rect x="46.418" y="35.9531" width="3.24982" height="3.24982" fill="#E6E5DD"/>
<rect x="7.41943" y="19.7056" width="3.24982" height="3.24982" fill="#E6E5DD"/>
<rect x="7.41846" y="22.9568" width="3.24982" height="3.24982" fill="#E6E5DD"/>
<rect x="7.41943" y="29.4531" width="3.24982" height="3.24982" fill="#E6E5DD"/>
<rect x="7.41992" y="26.2058" width="3.24982" height="3.24982" fill="#E6E5DD"/>
<rect x="49.6628" y="22.9551" width="3.24982" height="3.24982" fill="#E6E5DD"/>
<rect x="7.42041" y="32.7019" width="3.24982" height="3.24982" fill="#E6E5DD"/>
<rect x="49.6646" y="26.2046" width="3.24982" height="3.24982" fill="#E6E5DD"/>
<rect x="7.42017" y="35.9575" width="3.24982" height="3.24982" fill="#E6E5DD"/>
<rect x="7.41919" y="39.2046" width="3.24982" height="3.24982" fill="#E6E5DD"/>
<rect x="49.668" y="29.4561" width="3.24982" height="3.24982" fill="#E6E5DD"/>
<rect x="43.1658" y="19.7056" width="3.24982" height="3.24982" fill="#E6E5DD"/>
<rect x="46.4163" y="13.2048" width="3.24982" height="3.24982" fill="#E6E5DD"/>
<rect x="43.1643" y="16.4565" width="3.24982" height="3.24982" fill="#E6E5DD"/>
<rect x="0.918457" y="19.7043" width="3.24982" height="3.24982" fill="#E6E5DD"/>
<rect x="0.918945" y="29.4565" width="3.24982" height="3.24982" fill="#E6E5DD"/>
<rect x="43.1677" y="22.9553" width="3.24982" height="3.24982" fill="#E6E5DD"/>
<rect x="43.1689" y="26.2046" width="3.24982" height="3.24982" fill="#E6E5DD"/>
<rect x="0.920654" y="22.9543" width="3.24982" height="3.24982" fill="#E6E5DD"/>
<rect x="0.921875" y="26.2034" width="3.24982" height="3.24982" fill="#E6E5DD"/>
<rect x="43.1653" y="29.4529" width="3.24982" height="3.24982" fill="#E6E5DD"/>
<rect x="43.167" y="32.7021" width="3.24982" height="3.24982" fill="#E6E5DD"/>
<rect x="43.1685" y="35.9556" width="3.24982" height="3.24982" fill="#E6E5DD"/>
<rect x="43.1663" y="39.2053" width="3.24982" height="3.24982" fill="#E6E5DD"/>
<rect x="4.16821" y="16.4546" width="3.24982" height="3.24982" fill="#E6E5DD"/>
<rect x="43.1672" y="13.2034" width="3.24982" height="3.24982" fill="#E6E5DD"/>
<rect x="10.6694" y="16.4558" width="3.24982" height="3.24982" fill="#E6E5DD"/>
<rect x="10.6682" y="19.7065" width="3.24982" height="3.24982" fill="#E6E5DD"/>
<rect x="10.6699" y="22.9558" width="3.24982" height="3.24982" fill="#052e16"/>
<rect x="10.6672" y="26.2053" width="3.24982" height="3.24982" fill="#052e16"/>
<rect x="10.6682" y="29.4541" width="3.24982" height="3.24982" fill="#E6E5DD"/>
<rect x="10.6719" y="32.7058" width="3.24982" height="3.24982" fill="#E6E5DD"/>
<rect x="10.6709" y="35.9524" width="3.24982" height="3.24982" fill="#E6E5DD"/>
<rect x="10.6655" y="39.2029" width="3.24982" height="3.24982" fill="#E6E5DD"/>
<rect x="10.6675" y="42.4529" width="3.24982" height="3.24982" fill="#E6E5DD"/>
<rect x="23.6675" y="0.20752" width="3.24982" height="3.24982" fill="#E6E5DD"/>
<rect x="17.1677" y="3.45508" width="3.24982" height="3.24982" fill="#E6E5DD"/>
<rect x="30.1667" y="3.45898" width="3.24982" height="3.24982" fill="#E6E5DD"/>
<rect x="20.4187" y="6.7063" width="3.24982" height="3.24982" fill="#E6E5DD"/>
<rect x="20.4197" y="9.95508" width="3.24982" height="3.24982" fill="#E6E5DD"/>
<rect x="20.4192" y="13.2065" width="3.24982" height="3.24982" fill="#052e16"/>
<rect x="20.4167" y="16.4558" width="3.24982" height="3.24982" fill="#052e16"/>
<rect x="20.4177" y="19.7046" width="3.24982" height="3.24982" fill="#052e16"/>
<rect x="20.4216" y="22.9561" width="3.24982" height="3.24982" fill="#E6E5DD"/>
<rect x="20.4185" y="26.2051" width="3.24982" height="3.24982" fill="#E6E5DD"/>
<rect x="20.4148" y="29.4534" width="3.24982" height="3.24982" fill="#E6E5DD"/>
<rect x="20.4194" y="32.7058" width="3.24982" height="3.24982" fill="#E6E5DD"/>
<rect x="20.416" y="35.9543" width="3.24982" height="3.24982" fill="#E6E5DD"/>
<rect x="20.4175" y="39.2036" width="3.24982" height="3.24982" fill="#E6E5DD"/>
<rect x="20.4209" y="45.7024" width="3.24982" height="3.24982" fill="#E6E5DD"/>
<rect x="20.4187" y="42.4524" width="3.24982" height="3.24982" fill="#E6E5DD"/>
<rect x="20.418" y="48.9556" width="3.24982" height="3.24982" fill="#E6E5DD"/>
<rect x="33.415" y="6.70728" width="3.24982" height="3.24982" fill="#E6E5DD"/>
<rect x="33.4189" y="9.95874" width="3.24982" height="3.24982" fill="#E6E5DD"/>
<rect x="33.418" y="13.2058" width="3.24982" height="3.24982" fill="#E6E5DD"/>
<rect x="33.4163" y="16.4519" width="3.24982" height="3.24982" fill="#052e16"/>
<rect x="33.4189" y="19.7063" width="3.24982" height="3.24982" fill="#052e16"/>
<rect x="33.4175" y="22.9531" width="3.24982" height="3.24982" fill="#052e16"/>
<rect x="33.4167" y="26.2041" width="3.24982" height="3.24982" fill="#E6E5DD"/>
<rect x="33.416" y="29.4551" width="3.24982" height="3.24982" fill="#E6E5DD"/>
<rect x="33.4182" y="32.7051" width="3.24982" height="3.24982" fill="#E6E5DD"/>
<rect x="33.4194" y="35.9541" width="3.24982" height="3.24982" fill="#E6E5DD"/>
<rect x="33.4158" y="39.2024" width="3.24982" height="3.24982" fill="#E6E5DD"/>
<rect x="33.4153" y="42.4539" width="3.24982" height="3.24982" fill="#E6E5DD"/>
<rect x="33.4189" y="45.7051" width="3.24982" height="3.24982" fill="#E6E5DD"/>
<rect x="13.918" y="6.70483" width="3.24982" height="3.24982" fill="#E6E5DD"/>
<rect x="13.918" y="9.95703" width="3.24982" height="3.24982" fill="#E6E5DD"/>
<rect x="13.9192" y="13.2061" width="3.24982" height="3.24982" fill="#E6E5DD"/>
<rect x="13.9204" y="16.4551" width="3.24982" height="3.24982" fill="#E6E5DD"/>
<rect x="13.9197" y="19.7061" width="3.24982" height="3.24982" fill="#052e16"/>
<rect x="13.917" y="22.9553" width="3.24982" height="3.24982" fill="#052e16"/>
<rect x="13.9182" y="26.2043" width="3.24982" height="3.24982" fill="#052e16"/>
<rect x="13.9199" y="29.458" width="3.24982" height="3.24982" fill="#E6E5DD"/>
<rect x="13.9189" y="32.7048" width="3.24982" height="3.24982" fill="#E6E5DD"/>
<rect x="13.9172" y="35.9512" width="3.24982" height="3.24982" fill="#E6E5DD"/>
<rect x="13.9194" y="39.2009" width="3.24982" height="3.24982" fill="#E6E5DD"/>
<rect x="13.9165" y="42.4541" width="3.24982" height="3.24982" fill="#E6E5DD"/>
<rect x="13.918" y="45.7031" width="3.24982" height="3.24982" fill="#E6E5DD"/>
<rect x="26.9165" y="0.20874" width="3.24982" height="3.24982" fill="#E6E5DD"/>
<rect x="20.4194" y="3.45508" width="3.24982" height="3.24982" fill="#E6E5DD"/>
<rect x="33.4182" y="3.45435" width="3.24982" height="3.24982" fill="#E6E5DD"/>
<rect x="36.6707" y="6.70703" width="3.24982" height="3.24982" fill="#E6E5DD"/>
<rect x="36.6655" y="9.95776" width="3.24982" height="3.24982" fill="#E6E5DD"/>
<rect x="36.6643" y="13.2041" width="3.24982" height="3.24982" fill="#E6E5DD"/>
<rect x="36.6687" y="16.4565" width="3.24982" height="3.24982" fill="#E6E5DD"/>
<rect x="36.6675" y="19.7029" width="3.24982" height="3.24982" fill="#052e16"/>
<rect x="36.6665" y="22.9543" width="3.24982" height="3.24982" fill="#052e16"/>
<rect x="36.668" y="26.2034" width="3.24982" height="3.24982" fill="#052e16"/>
<rect x="36.668" y="29.4551" width="3.24982" height="3.24982" fill="#E6E5DD"/>
<rect x="36.6672" y="32.7063" width="3.24982" height="3.24982" fill="#E6E5DD"/>
<rect x="36.6658" y="35.9526" width="3.24982" height="3.24982" fill="#E6E5DD"/>
<rect x="36.6672" y="39.2019" width="3.24982" height="3.24982" fill="#E6E5DD"/>
<rect x="36.6687" y="42.4553" width="3.24982" height="3.24982" fill="#E6E5DD"/>
<rect x="36.6663" y="45.7048" width="3.24982" height="3.24982" fill="#E6E5DD"/>
<rect x="23.6699" y="6.70532" width="3.24982" height="3.24982" fill="#E6E5DD"/>
<rect x="23.6689" y="9.95679" width="3.24982" height="3.24982" fill="#052e16"/>
<rect x="23.6685" y="13.2039" width="3.24982" height="3.24982" fill="#052e16"/>
<rect x="23.6677" y="16.4548" width="3.24982" height="3.24982" fill="#052e16"/>
<rect x="23.6692" y="19.7085" width="3.24982" height="3.24982" fill="#052e16"/>
<rect x="23.668" y="22.9551" width="3.24982" height="3.24982" fill="#052e16"/>
<rect x="23.667" y="26.2014" width="3.24982" height="3.24982" fill="#052e16"/>
<rect x="23.6692" y="29.4561" width="3.24982" height="3.24982" fill="#052e16"/>
<rect x="23.6663" y="32.7043" width="3.24982" height="3.24982" fill="#052e16"/>
<rect x="23.6675" y="35.9534" width="3.24982" height="3.24982" fill="#052e16"/>
<rect x="23.6699" y="45.7036" width="3.24982" height="3.24982" fill="#E6E5DD"/>
<rect x="23.6667" y="39.2048" width="3.24982" height="3.24982" fill="#052e16"/>
<rect x="23.6685" y="42.4546" width="3.24982" height="3.24982" fill="#E6E5DD"/>
<rect x="23.6682" y="48.9497" width="3.24982" height="3.24982" fill="#E6E5DD"/>
<rect x="30.1697" y="0.205811" width="3.24982" height="3.24982" fill="#E6E5DD"/>
<rect x="23.6685" y="3.4563" width="3.24982" height="3.24982" fill="#E6E5DD"/>
<rect x="36.667" y="3.45532" width="3.24982" height="3.24982" fill="#E6E5DD"/>
<rect x="39.9177" y="6.70605" width="3.24982" height="3.24982" fill="#E6E5DD"/>
<rect x="39.916" y="9.95239" width="3.24982" height="3.24982" fill="#E6E5DD"/>
<rect x="43.166" y="9.95435" width="3.24982" height="3.24982" fill="#E6E5DD"/>
<rect x="39.9141" y="13.2063" width="3.24982" height="3.24982" fill="#E6E5DD"/>
<rect x="39.9153" y="16.4553" width="3.24982" height="3.24982" fill="#E6E5DD"/>
<rect x="39.9167" y="19.7043" width="3.24982" height="3.24982" fill="#E6E5DD"/>
<rect x="39.918" y="22.9536" width="3.24982" height="3.24982" fill="#052e16"/>
<rect x="39.918" y="26.2053" width="3.24982" height="3.24982" fill="#052e16"/>
<rect x="39.9189" y="29.4543" width="3.24982" height="3.24982" fill="#E6E5DD"/>
<rect x="39.9155" y="32.7026" width="3.24982" height="3.24982" fill="#E6E5DD"/>
<rect x="39.915" y="35.9541" width="3.24982" height="3.24982" fill="#E6E5DD"/>
<rect x="39.9187" y="39.2056" width="3.24982" height="3.24982" fill="#E6E5DD"/>
<rect x="39.9185" y="42.4531" width="3.24982" height="3.24982" fill="#E6E5DD"/>
<rect x="26.9189" y="6.70679" width="3.24982" height="3.24982" fill="#E6E5DD"/>
<rect x="26.9185" y="9.9541" width="3.24982" height="3.24982" fill="#052e16"/>
<rect x="26.9175" y="13.2051" width="3.24982" height="3.24982" fill="#052e16"/>
<rect x="26.9214" y="16.4565" width="3.24982" height="3.24982" fill="#052e16"/>
<rect x="26.9182" y="19.7053" width="3.24982" height="3.24982" fill="#052e16"/>
<rect x="26.9146" y="22.9539" width="3.24982" height="3.24982" fill="#052e16"/>
<rect x="26.9167" y="26.2036" width="3.24982" height="3.24982" fill="#052e16"/>
<rect x="26.918" y="29.4526" width="3.24982" height="3.24982" fill="#052e16"/>
<rect x="26.9172" y="32.7036" width="3.24982" height="3.24982" fill="#052e16"/>
<rect x="26.9163" y="45.7021" width="3.24982" height="3.24982" fill="#E6E5DD"/>
<rect x="26.9165" y="35.9548" width="3.24982" height="3.24982" fill="#052e16"/>
<rect x="26.9185" y="39.2048" width="3.24982" height="3.24982" fill="#052e16"/>
<rect x="26.9177" y="42.4558" width="3.24982" height="3.24982" fill="#E6E5DD"/>
<rect x="26.9177" y="48.9514" width="3.24982" height="3.24982" fill="#E6E5DD"/>
</svg>