<svg class="icon" viewBox="0 0 1024 1024" version="1.1" xmlns="http://www.w3.org/2000/svg" width="32" height="32"><path d="M397.459601 1023.997554c-83.977195 0-162.888214-34.345301-222.196238-96.707462C116.094777 865.071036 83.508327 782.359773 83.508327 694.390303c0-87.964577 32.586449-170.67584 91.756259-232.897343 59.308023-62.364608 138.217819-96.711131 222.196238-96.711131 16.857084 0 33.915984 1.470194 50.70335 4.371442l9.134285 1.579053v208.022685l-15.040747-5.922363c-13.882449-5.466138-28.52568-8.234066-43.526063-8.234066-68.494901 0-124.219173 58.838343-124.219173 131.16529 0 72.3245 55.724272 131.162844 124.219173 131.162844 68.441084 0 124.121323-58.838343 124.121323-131.162844V0h191.002925v11.008109c0 125.310199 96.723363 227.257521 215.613388 227.257521h11.008109v197.538073l-12.18353 0.999292c-42.088894 0-83.673861-6.762648-123.597827-20.100808a389.758006 389.758006 0 0 1-93.288832-45.73747v323.425586c0 87.967023-32.586449 170.678286-91.75626 232.897342-59.30313 62.364608-138.214149 96.709908-222.191344 96.709909z m0-637.199507C236.486797 386.798047 105.524545 524.784696 105.524545 694.390303c0 169.608054 130.961028 307.591032 291.935056 307.591032 160.97158 0 291.933832-137.984202 291.933831-307.591032V327.623345l17.621537 13.242755c60.807572 45.697107 135.541625 71.712939 211.446207 73.787356V260.017654c-122.462768-5.882-221.03794-109.46953-226.392773-238.001436H544.867967v673.745206c0 84.465222-65.558183 153.181508-146.137541 153.181508-80.6344 0-146.235392-68.71751-146.235392-153.181508s65.600992-153.181508 146.235392-153.181508c12.44161 0 24.680181 1.60963 36.550591 4.801982V389.426539a275.733565 275.733565 0 0 0-37.821416-2.628492z" p-id="5441" fill="#ffffff"></path></svg>